<?xml version="1.0" encoding="UTF-8" standalone="no"?>
<svg
   xmlns:dc="http://purl.org/dc/elements/1.1/"
   xmlns:cc="http://creativecommons.org/ns#"
   xmlns:rdf="http://www.w3.org/1999/02/22-rdf-syntax-ns#"
   xmlns:svg="http://www.w3.org/2000/svg"
   xmlns="http://www.w3.org/2000/svg"
   id="svg8"
   version="1.1"
   viewBox="0 0 61.996929 14.443974"
   height="14.443974mm"
   width="61.996929mm">
  <defs
     id="defs2" />
  <metadata
     id="metadata5">
    <rdf:RDF>
      <cc:Work
         rdf:about="">
        <dc:format>image/svg+xml</dc:format>
        <dc:type
           rdf:resource="http://purl.org/dc/dcmitype/StillImage" />
        <dc:title></dc:title>
      </cc:Work>
    </rdf:RDF>
  </metadata>
  <g
     transform="translate(-36.29782,-80.610784)"
     id="layer1">
    <g
       transform="matrix(0.26458333,0,0,0.26458333,46.081684,91.475787)"
       id="g3890">
      <g
         transform="translate(-59.978483,-104.55708)"
         id="Layer1000">
        <path
           d="M 60.5626,118.0839 42.2647,93.4365 39.7676,102.7237 H 23.0001 L 31.2763,71.8998 H 45.5194 L 33.5209,63.4925 h 30.4682 c 5.7513,0 8.6319,2.263 8.6319,6.7986 0,1.2158 -0.2057,2.6094 -0.6081,4.1619 l -0.9539,3.535 c -1.973,7.3591 -6.6024,11.0068 -13.8969,10.9506 l 21.7673,29.1453 z m -5.7853,-41.882 c 0.1312,-0.5147 0.1968,-0.9634 0.1968,-1.3658 0,-1.9545 -1.5059,-2.9363 -4.5172,-2.9363 h -2.4126 l -2.3287,8.6315 h 2.4127 c 3.6472,0 5.8635,-1.4398 6.649,-4.3294 z m 51.725,17.7587 c -1.5615,5.8452 -5.2649,8.772 -11.1101,8.772 H 77.3245 c -4.6011,0 -6.9015,-1.8139 -6.9015,-5.4333 0,-0.9817 0.159,-2.0946 0.4864,-3.3387 l 3.7218,-13.8497 c 1.562,-5.8452 5.2654,-8.7725 11.1101,-8.7725 h 18.0677 c 4.6012,0 6.9015,1.8144 6.9015,5.4338 0,0.9818 -0.159,2.0947 -0.4859,3.3387 z m -12.7839,-2.347 2.4593,-9.1556 c 0.159,-0.6171 0.2435,-1.1691 0.2435,-1.6644 0,-1.8144 -1.1502,-2.7216 -3.4416,-2.7216 -2.9273,0 -4.779,1.4587 -5.5739,4.386 l -2.4499,9.1556 c -0.159,0.617 -0.2434,1.169 -0.2434,1.6644 0,1.8144 1.1596,2.7216 3.4604,2.7216 2.9268,0 4.7785,-1.4592 5.5456,-4.386 z m 48.4608,2.8334 c -1.487,5.5272 -5.162,8.2856 -11.0256,8.2856 h -24.371 l 6.6212,-24.6606 h 11.3998 l -9.6042,-6.7336 h 24.371 c 4.7691,0 7.1444,1.646 7.1444,4.9286 0,0.7482 -0.1212,1.5714 -0.3736,2.4782 -1.3097,4.9474 -4.1152,7.4162 -8.4168,7.4162 3.2075,0 4.8068,1.5242 4.8068,4.5822 0,1.0473 -0.1873,2.282 -0.552,3.7034 z M 132.341,81.0271 c 0.075,-0.2991 0.1123,-0.5798 0.1123,-0.8322 0,-1.412 -1.2341,-2.1229 -3.7123,-2.1229 h -1.9267 l -1.5993,5.9197 h 1.9267 c 2.9268,0 4.6573,-0.9912 5.1993,-2.9646 z m -3.0018,11.138 c 0.1311,-0.486 0.1967,-0.9162 0.1967,-1.3186 0,-1.6739 -1.1879,-2.5155 -3.5538,-2.5155 h -1.9267 l -2.0385,7.6686 h 1.9262 c 2.9273,0 4.7229,-1.2813 5.3961,-3.8345 z m 50.3035,-20.8267 h -19.9005 c -5.8447,0 -9.5575,2.9273 -11.1196,8.7725 l -0.458,1.73 c -0.3369,1.2436 -0.5048,2.347 -0.5048,3.3293 0,3.6189 2.3003,5.4333 6.9014,5.4333 h 6.0505 c 2.0951,0 3.133,0.6265 3.133,1.889 0,0.2434 -0.0373,0.5142 -0.1307,0.8043 -0.468,1.805 -1.9362,2.7028 -4.4238,2.7028 h -14.813 l -1.8238,6.733 h 20.995 c 5.8447,0 9.5575,-2.9362 11.138,-8.7904 l 0.458,-1.7304 c 0.3274,-1.2247 0.4864,-2.3282 0.4864,-3.3104 0,-3.619 -2.3003,-5.4334 -6.9109,-5.4334 h -6.0414 c -2.0758,0 -3.1236,-0.6265 -3.142,-1.8889 0,-0.2435 0.0467,-0.5147 0.1307,-0.8138 0.4864,-1.7956 1.9734,-2.6933 4.4516,-2.6933 h 13.719 z m 33.2554,22.6222 c -1.5616,5.8452 -5.265,8.772 -11.1102,8.772 h -18.0677 c -4.6011,0 -6.9015,-1.8139 -6.9015,-5.4333 0,-0.9817 0.159,-2.0946 0.4864,-3.3387 l 3.7218,-13.8497 c 1.562,-5.8452 5.2654,-8.7725 11.1101,-8.7725 h 18.0677 c 4.6012,0 6.9015,1.8144 6.9015,5.4338 0,0.9818 -0.159,2.0947 -0.4859,3.3387 z m -12.784,-2.347 2.4593,-9.1556 c 0.159,-0.6171 0.2435,-1.1691 0.2435,-1.6644 0,-1.8144 -1.1502,-2.7216 -3.4416,-2.7216 -2.9273,0 -4.779,1.4587 -5.5739,4.386 l -2.4499,9.1556 c -0.159,0.617 -0.2434,1.169 -0.2434,1.6644 0,1.8144 1.1596,2.7216 3.4604,2.7216 2.9268,0 4.7785,-1.4592 5.5456,-4.386 z m 48.7883,11.119 h -13.4105 l -4.386,-16.8142 -4.5172,16.8142 h -13.4104 l 6.6212,-24.6606 h 11.3998 l -9.6042,-6.7336 h 13.4104 l 4.3861,16.8148 4.5171,-16.7959 13.4105,-0.0189 z"
           style="fill:#ffffff;fill-rule:evenodd"
           id="path3822" />
        <path
           d="m 86.53,108.6105 h 4.4751 v -1.9504 h -4.529 c -4.1685,0 -6.0991,1.8412 -6.0991,5.7886 0,2.0284 0.6495,3.495 1.9848,4.4156 1.2631,0.8737 2.4722,0.9829 4.0419,0.9829 h 4.6014 v -1.9504 H 86.53 c -2.1472,0 -3.0675,-0.7332 -3.0857,-2.746 h 7.5608 v -1.9502 h -7.5426 c 0.1084,-1.7528 1.1007,-2.5901 3.0675,-2.5901 z m 18.9346,0.0467 v -1.9971 h -7.1274 c -3.0857,0 -4.5474,0.9986 -4.5474,3.4247 0,2.2391 1.3534,3.2065 4.3127,3.2065 h 3.2118 c 1.3173,0 1.9308,0.2964 1.9308,1.295 0,0.9673 -0.6677,1.2637 -2.1112,1.2637 h -6.8208 v 1.9972 h 7.2538 c 3.0677,0 4.5292,-0.9986 4.5292,-3.3546 0,-2.3403 -1.2451,-3.1673 -4.1321,-3.1673 h -3.609 c -1.1367,0 -1.7142,-0.4031 -1.7142,-1.2091 0,-1.0246 0.6677,-1.459 2.0933,-1.459 z m 9.1362,-0.0779 h 4.4752 v -1.9192 h -4.5291 c -4.1684,0 -6.0991,1.8412 -6.0991,5.7964 0,2.0232 0.6495,3.4872 1.9848,4.4078 1.2631,0.8737 2.4722,0.9829 4.0419,0.9829 h 4.6015 v -1.9504 h -4.4752 c -2.2915,0 -3.1757,-0.8398 -3.1757,-3.3466 0,-2.7721 0.8842,-3.9709 3.1757,-3.9709 z m 11.3197,-1.9192 -5.4853,11.1871 h 2.8869 l 1.155,-2.6681 h 5.6298 l 1.1909,2.6681 h 3.0314 l -5.5214,-11.1871 z m 1.3354,2.2259 1.9668,4.2961 h -3.8615 z m 14.9827,-0.2288 c 1.8045,0 2.5985,0.4031 2.5985,1.6462 0,1.1181 -0.794,1.646 -2.4361,1.646 h -3.3201 v -3.2922 z m -5.8824,-1.9971 v 11.1871 h 2.7247 v -3.9162 h 3.3021 c 1.624,0 2.8871,-0.0469 3.9877,-0.7177 1.0105,-0.6242 1.4978,-1.5733 1.4978,-2.9099 0,-1.3835 -0.6316,-2.4419 -1.7864,-3.0816 -0.7938,-0.4368 -2.039,-0.5617 -3.8074,-0.5617 z m 17.058,0 -5.4856,11.1871 h 2.8871 l 1.1548,-2.6681 h 5.6299 l 1.191,2.6681 h 3.0315 l -5.5217,-11.1871 z m 1.3353,2.2259 1.9667,4.2961 h -3.8615 z m 9.1003,-2.2259 v 11.1871 h 2.7789 l -0.2708,-8.8024 3.4285,8.8024 h 2.8871 l 3.3202,-8.7089 -0.2166,8.7089 h 2.6706 v -11.1871 h -3.9878 l -3.3021,8.5866 -3.3022,-8.5866 z m 23.7342,1.9504 h 4.4752 v -1.9504 h -4.5291 c -4.1684,0 -6.0991,1.8412 -6.0991,5.7886 0,2.0284 0.6495,3.495 1.9848,4.4156 1.2631,0.8737 2.4722,0.9829 4.0419,0.9829 h 4.6015 v -1.9504 h -4.4752 c -2.1472,0 -3.0675,-0.7332 -3.0855,-2.746 h 7.5607 v -1.9502 h -7.5427 c 0.1084,-1.7528 1.1007,-2.5901 3.0675,-2.5901 z m 7.9818,-1.9504 v 11.1871 h 2.7967 l -0.1263,-8.4619 5.5757,8.4619 h 3.1579 v -11.1871 h -2.7788 l 0.1263,8.0406 -5.3052,-8.0406 z m 17.9961,1.9504 v 9.2367 h 2.8149 v -9.2367 h 4.2044 v -1.9504 h -11.2057 v 1.9504 z m 15.0909,-0.2652 c 2.3999,0 3.5007,1.2637 3.5007,3.9005 0,2.6369 -1.1008,3.9008 -3.5007,3.9008 -2.436,0 -3.4824,-1.2639 -3.4824,-3.9943 0,-2.5433 1.1368,-3.807 3.4824,-3.807 z m -6.4597,3.7913 c 0,4.0723 2.0027,5.9447 6.4597,5.9447 4.4029,0 6.46,-1.8724 6.46,-5.8355 0,-3.963 -2.0571,-5.8197 -6.46,-5.8197 -4.3486,0 -6.4597,1.8567 -6.4597,5.7105 z m 26.8558,-3.4794 v -1.9971 h -7.1274 c -3.0857,0 -4.5472,0.9986 -4.5472,3.4247 0,2.2391 1.3532,3.2065 4.3125,3.2065 h 3.212 c 1.3172,0 1.9306,0.2964 1.9306,1.295 0,0.9673 -0.6677,1.2637 -2.1112,1.2637 h -6.8207 v 1.9972 h 7.2537 c 3.0678,0 4.5292,-0.9986 4.5292,-3.3546 0,-2.3403 -1.2449,-3.1673 -4.1321,-3.1673 h -3.6089 c -1.1368,0 -1.7143,-0.4031 -1.7143,-1.2091 0,-1.0246 0.6677,-1.459 2.0933,-1.459 z"
           style="fill:#ffffff;fill-rule:evenodd"
           id="path3824" />
      </g>
    </g>
  </g>
</svg>
